PathFileType	4	(X/Y/Z)	C:/Users/opensim2020/Desktop/walking_exp_matlab/subject02_walking14_straight_04.trc	
DataRate	CameraRate	NumFrames	NumMarkers	Units	OrigDataRate	OrigDataStartFrame	OrigNumFrames	
100.00	100.00	4	41	mm	100.00	1695	137	
Frame#	Time	LFHD			RFHD			LBHD			RBHD			C7			T10			CLAV			STRN			RBAK			LSHO			LUPA			LELB			LFRM			LWRA			LWRB			LFIN			RSHO			RUPA			RELB			RFRM			RWRA			RWRB			RFIN			LASI			RASI			LPSI			RPSI			LTHI			LKNE			LTIB			LANK			LHEE			LTOE			RTHI			RKNE			RTIB			RANK			RHEE			RTOE			*39			*40			
		X1	Y1	Z1	X2	Y2	Z2	X3	Y3	Z3	X4	Y4	Z4	X5	Y5	Z5	X6	Y6	Z6	X7	Y7	Z7	X8	Y8	Z8	X9	Y9	Z9	X10	Y10	Z10	X11	Y11	Z11	X12	Y12	Z12	X13	Y13	Z13	X14	Y14	Z14	X15	Y15	Z15	X16	Y16	Z16	X17	Y17	Z17	X18	Y18	Z18	X19	Y19	Z19	X20	Y20	Z20	X21	Y21	Z21	X22	Y22	Z22	X23	Y23	Z23	X24	Y24	Z24	X25	Y25	Z25	X26	Y26	Z26	X27	Y27	Z27	X28	Y28	Z28	X29	Y29	Z29	X30	Y30	Z30	X31	Y31	Z31	X32	Y32	Z32	X33	Y33	Z33	X34	Y34	Z34	X35	Y35	Z35	X36	Y36	Z36	X37	Y37	Z37	X38	Y38	Z38	X39	Y39	Z39	X40	Y40	Z40	X41	Y41	Z41	

18	0.170	-915.31848	661.76752	1726.37378	-1059.27478	673.45203	1716.47668	-900.71564	787.53259	1645.14526	-1042.16223	811.67883	1633.08557	-973.78741	839.34711	1501.81726	-995.08075	877.77570	1228.43799	-981.42163	692.25244	1445.27930	-1012.66827	632.94611	1278.25684	-1045.75989	893.32678	1330.32837	-804.31030	747.63348	1468.56897	-711.29883	785.42743	1280.32861	-683.03986	821.98279	1154.94189	-638.03491	861.35284	1042.08655	-604.64697	851.57532	907.41150	-605.21899	901.86816	931.91144	-572.61029	914.91675	877.27911	-1166.90112	785.06696	1490.67908	-1278.34180	810.93512	1318.84131	-1341.84717	774.80573	1188.39050	-1368.64185	674.25555	1122.31519	-1359.70337	551.18439	1074.87305	-1388.18713	579.66138	1035.21887	-1404.25732	511.19357	1035.56726	-903.69073	636.62262	967.34314	-1146.87708	681.34241	945.69897	-945.59167	855.56372	1023.55402	-1063.19971	875.37616	1020.36603	-851.94849	625.29584	668.79010	-904.45007	593.73285	478.54987	-907.87274	627.00342	288.36902	-955.39166	616.86505	72.07474	-1006.32965	656.58350	46.64047	-956.06006	460.85632	37.42937	-1214.39392	838.50287	657.17139	-1200.17163	886.37878	458.08182	-1182.25366	1038.47986	350.62329	-1130.22461	1174.49866	224.55367	-1058.12219	1208.76709	221.36549	-1147.02917	1160.27637	60.80511	-992.23206	773.38544	1792.16333	-3360.36133	2845.29565	1034.33325 
19	0.180	-916.33636	649.01489	1728.58398	-1060.00525	660.91254	1719.19287	-901.55914	775.01733	1647.55786	-1043.17883	799.07465	1635.59900	-975.06189	826.15515	1503.58508	-996.19330	863.48328	1230.43860	-982.82635	678.82281	1447.88818	-1013.91650	618.90350	1280.93457	-1047.52759	880.13275	1332.79517	-805.50098	734.38232	1470.97437	-713.05774	769.70056	1281.64270	-685.42908	804.84344	1155.43347	-641.65265	842.30872	1041.29028	-610.43445	829.74335	906.37976	-610.03479	880.84381	930.07782	-578.19611	892.46844	874.24658	-1168.52429	771.94788	1492.22339	-1277.38501	800.29059	1318.76062	-1339.28015	765.89270	1187.17676	-1365.39722	666.47113	1119.10327	-1356.33704	544.21118	1069.85217	-1384.12268	573.38379	1030.28308	-1400.32056	505.22623	1029.21179	-902.89893	623.18701	970.08661	-1145.13000	666.51630	946.62970	-946.69891	841.97357	1025.82813	-1064.08801	861.52063	1022.54987	-852.74091	615.08350	670.32410	-905.21558	587.75824	478.50793	-908.60107	624.46844	288.57480	-955.44189	616.71442	72.45619	-1006.47949	656.60266	46.75350	-956.42383	460.54224	37.17281	-1216.16382	815.55890	655.50452	-1203.41064	859.28027	456.30069	-1184.85229	1012.96143	352.48056	-1129.85925	1151.73450	231.32065	-1057.41028	1185.70459	228.09589	-1151.00854	1140.64026	68.07360	-992.88739	761.01428	1794.54285	-3357.36670	2845.97925	1034.34717 
20	0.190	-916.74689	636.84454	1731.33459	-1060.68250	648.30682	1722.13391	-902.54846	762.40912	1649.76843	-1044.09229	786.18683	1638.11157	-976.47595	812.94049	1505.91443	-997.34613	849.54926	1232.79321	-984.21014	665.52429	1450.68640	-1015.21985	605.08960	1283.63416	-1048.92883	866.70886	1335.40027	-806.87305	721.12292	1473.64258	-714.90948	753.87360	1283.40967	-688.15942	787.44421	1156.05920	-645.54681	822.53729	1040.61792	-616.73639	807.15759	905.50256	-614.60059	858.57501	928.15186	-583.98065	868.80798	871.42615	-1170.23157	758.80804	1494.15723	-1276.28601	789.70160	1319.04028	-1336.38635	757.04114	1186.25061	-1362.34839	659.10699	1115.91565	-1352.72534	537.78497	1064.22864	-1379.86670	567.73816	1024.74109	-1396.41357	499.93533	1022.26782	-902.27570	610.32916	972.92322	-1144.13635	652.39697	948.13354	-947.51337	828.44989	1028.35803	-1064.59204	848.35590	1025.20764	-853.38519	605.42914	672.11823	-905.30652	582.76910	478.61444	-908.67255	622.32727	288.79126	-955.56671	616.63184	72.62462	-1006.55469	656.72876	46.83792	-956.73102	460.42291	37.06938	-1217.92664	792.82709	655.33246	-1206.03113	832.05963	455.81543	-1186.18445	986.72644	355.49634	-1128.89270	1127.66589	237.78317	-1056.25793	1162.27930	232.63646	-1154.10571	1116.90137	75.19824	-993.44519	748.61536	1797.08899	-3357.56836	2845.85132	1034.47815 
21	0.200	-917.57605	624.27100	1734.19519	-1061.53662	635.73425	1725.38013	-903.84070	749.61353	1652.19971	-1045.41663	773.57446	1641.11121	-977.98370	799.60211	1508.66003	-998.63562	835.92749	1235.50317	-985.94373	652.20734	1453.39929	-1016.56183	591.62061	1286.47205	-1050.26062	853.54492	1338.14990	-808.32312	707.78845	1476.60925	-717.12665	738.01709	1285.28845	-691.33447	769.73151	1156.97412	-649.50317	802.22925	1040.29858	-623.38245	783.70642	904.59985	-619.65625	835.32898	926.37909	-590.44055	843.85150	868.62140	-1171.96448	745.87854	1496.38452	-1275.34265	779.34222	1319.95264	-1333.58142	748.24719	1185.70703	-1358.72461	652.02997	1112.56775	-1349.09277	531.92371	1058.12622	-1375.94910	562.97852	1019.34229	-1392.49207	495.29935	1014.77448	-901.96594	597.77863	975.84222	-1144.13965	638.61591	950.54572	-948.10388	815.29059	1031.26746	-1064.71082	835.62683	1028.11816	-853.90381	595.80664	672.99200	-904.92786	578.41235	478.89221	-908.15967	620.67334	289.22278	-955.53143	616.65948	72.74762	-1006.52142	656.83337	46.82810	-956.68188	460.54224	37.01777	-1219.43005	770.50110	656.31818	-1208.03931	804.64148	456.43222	-1186.71423	959.87653	358.69440	-1128.09631	1102.25989	243.17026	-1055.62390	1137.74377	235.95921	-1157.79504	1090.28442	81.44612	-994.32886	736.21729	1799.67725	-3360.48071	2845.34570	1034.36890 
